<svg width="1544" height="500" viewBox="0 0 1544 500" fill="none" xmlns="http://www.w3.org/2000/svg">
  <rect width="1544" height="500" fill="#F5EFE4"/>
  <g opacity="0.55" stroke="#D8D2C7">
    <path d="M-120 20L360 500"/>
    <path d="M-20 20L460 500"/>
    <path d="M80 20L560 500"/>
    <path d="M180 20L660 500"/>
    <path d="M280 20L760 500"/>
    <path d="M380 20L860 500"/>
    <path d="M480 20L960 500"/>
  </g>
  <text x="68" y="88" fill="#2A7F87" font-size="34" font-family="Segoe UI, Arial, sans-serif">Privacy-friendly WordPress QR workflows</text>
  <text x="68" y="172" fill="#17313B" font-size="64" font-weight="700" font-family="Segoe UI, Arial, sans-serif">Client-Side QR</text>
  <text x="68" y="248" fill="#17313B" font-size="64" font-weight="700" font-family="Segoe UI, Arial, sans-serif">Code Generator</text>
  <text x="68" y="324" fill="#17313B" font-size="30" font-family="Segoe UI, Arial, sans-serif">Generate styled QR codes in the browser for links, campaigns,</text>
  <text x="68" y="364" fill="#17313B" font-size="30" font-family="Segoe UI, Arial, sans-serif">contact sharing, WiFi, and payments.</text>

  <rect x="68" y="402" width="170" height="44" rx="22" fill="#FFFFFF" stroke="#D7DFDF" stroke-width="2"/>
  <text x="92" y="430" fill="#17313B" font-size="22" font-family="Segoe UI, Arial, sans-serif">Block + Shortcode</text>
  <rect x="252" y="402" width="128" height="44" rx="22" fill="#FFFFFF" stroke="#D7DFDF" stroke-width="2"/>
  <text x="283" y="430" fill="#17313B" font-size="22" font-family="Segoe UI, Arial, sans-serif">Client-Side</text>
  <rect x="394" y="402" width="178" height="44" rx="22" fill="#FFFFFF" stroke="#D7DFDF" stroke-width="2"/>
  <text x="426" y="430" fill="#17313B" font-size="22" font-family="Segoe UI, Arial, sans-serif">Campaign Ready</text>

  <g filter="url(#shadow)">
    <rect x="1120" y="40" width="360" height="420" rx="28" fill="#FFFFFF" stroke="#DCE3E3" stroke-width="2"/>
  </g>
  <rect x="1144" y="64" width="312" height="44" rx="20" fill="#EFF4F2"/>
  <circle cx="1172" cy="86" r="6" fill="#9ED6C2"/>
  <circle cx="1190" cy="86" r="6" fill="#F0C36B"/>
  <circle cx="1208" cy="86" r="6" fill="#E68A7A"/>

  <rect x="1160" y="132" width="280" height="208" rx="26" fill="#F7FBFA" stroke="#DCE8E8" stroke-width="2"/>
  <g fill="#17313B">
    <rect x="1190" y="162" width="72" height="72" rx="12"/>
    <rect x="1268" y="162" width="30" height="30" rx="8"/>
    <rect x="1190" y="240" width="30" height="30" rx="8"/>
    <rect x="1268" y="240" width="30" height="30" rx="8"/>

    <rect x="1344" y="162" width="72" height="72" rx="12"/>
    <rect x="1422" y="162" width="30" height="30" rx="8"/>
    <rect x="1344" y="240" width="30" height="30" rx="8"/>

    <rect x="1190" y="316" width="72" height="72" rx="12"/>
    <rect x="1228" y="392" width="30" height="30" rx="8"/>
    <rect x="1208" y="316" width="30" height="30" rx="8"/>

    <rect x="1304" y="276" width="30" height="30" rx="8"/>
    <rect x="1344" y="316" width="30" height="72" rx="8"/>
    <rect x="1422" y="276" width="30" height="30" rx="8"/>
    <rect x="1384" y="392" width="72" height="30" rx="8"/>
  </g>

  <circle cx="1392" cy="346" r="46" stroke="#2A7F87" stroke-width="12"/>
  <circle cx="1392" cy="346" r="24" fill="#9ED6C2"/>
  <path d="M1392 330V362" stroke="#FFFFFF" stroke-width="8" stroke-linecap="round"/>
  <path d="M1376 346H1408" stroke="#FFFFFF" stroke-width="8" stroke-linecap="round"/>

  <defs>
    <filter id="shadow" x="1096" y="20" width="408" height="468" filterUnits="userSpaceOnUse" color-interpolation-filters="sRGB">
      <feFlood flood-opacity="0" result="BackgroundImageFix"/>
      <feColorMatrix in="SourceAlpha" type="matrix" values="0 0 0 0 0 0 0 0 0 0 0 0 0 0 0 0 0 0 127 0" result="hardAlpha"/>
      <feOffset dy="8"/>
      <feGaussianBlur stdDeviation="12"/>
      <feColorMatrix type="matrix" values="0 0 0 0 0.0901961 0 0 0 0 0.192157 0 0 0 0 0.231373 0 0 0 0.18 0"/>
      <feBlend mode="normal" in2="BackgroundImageFix" result="effect1_dropShadow_1_1"/>
      <feBlend mode="normal" in="SourceGraphic" in2="effect1_dropShadow_1_1" result="shape"/>
    </filter>
  </defs>
</svg>
